
  <svg
    width="1000"
    height="1000"
    viewBox="0 0 1000 1000"
    xmlns="http://www.w3.org/2000/svg"
  >
    <defs>
      
      
      <linearGradient id="linearGradientId" gradientTransform="rotate(135 0.5 0.5)">
      <stop offset="0%"  stop-color="#0023ff" />
			<stop offset="100%"  stop-color="#8fb6ff" />
    </linearGradient>
      
      
      
      
      <clipPath id="shape">
        <path fill="currentColor" d="M886.5,644Q896,788,764.5,849Q633,910,497,919Q361,928,237.5,854.5Q114,781,147.5,640.5Q181,500,138.5,353Q96,206,243.5,186Q391,166,483,218Q575,270,690,274.5Q805,279,841,389.5Q877,500,886.5,644Z"></path>
      </clipPath>
    </defs>
  
    

    <g  clip-path="url(#shape)">
      <path fill="url(#linearGradientId)" d="M886.5,644Q896,788,764.5,849Q633,910,497,919Q361,928,237.5,854.5Q114,781,147.5,640.5Q181,500,138.5,353Q96,206,243.5,186Q391,166,483,218Q575,270,690,274.5Q805,279,841,389.5Q877,500,886.5,644Z" />
    </g>

    
  
  </svg>